<?xml version="1.0" encoding="UTF-8"?>
<svg version="1.1" xmlns="http://www.w3.org/2000/svg" width="32" height="32">
<path d="M0 0 C10.56 0 21.12 0 32 0 C32 10.56 32 21.12 32 32 C21.44 32 10.88 32 0 32 C0 21.44 0 10.88 0 0 Z " fill="#F8F9F8" transform="translate(0,0)"/>
<path d="M0 0 C0 1.65 0 3.3 0 5 C-2.31 5.33 -4.62 5.66 -7 6 C-6.67 6.99 -6.34 7.98 -6 9 C-5.34 8.67 -4.68 8.34 -4 8 C-1 11.625 -1 11.625 -1 15 C-0.34 15.66 0.32 16.32 1 17 C0.34 17.33 -0.32 17.66 -1 18 C-1.65555119 20.52733235 -1.65555119 20.52733235 -2 23 C-2.66 23 -3.32 23 -4 23 C-4.33 23.99 -4.66 24.98 -5 26 C-6.98 26 -8.96 26 -11 26 C-10.625 24.0625 -10.625 24.0625 -10 22 C-9.34 21.67 -8.68 21.34 -8 21 C-8 20.01 -8 19.02 -8 18 C-9.32 18.33 -10.64 18.66 -12 19 C-11.67 17.68 -11.34 16.36 -11 15 C-12.32 15 -13.64 15 -15 15 C-15.66 17.97 -16.32 20.94 -17 24 C-17.99 23.34 -18.98 22.68 -20 22 C-20 21.01 -20 20.02 -20 19 C-20.99 18.67 -21.98 18.34 -23 18 C-23 13.75354935 -21.18249194 11.61475228 -19 8 C-18.67 8.99 -18.34 9.98 -18 11 C-17.34 9.35 -16.68 7.7 -16 6 C-18.71549154 3.69328085 -18.71549154 3.69328085 -21.1875 4.375 C-22.0846875 4.684375 -22.0846875 4.684375 -23 5 C-23 3.68 -23 2.36 -23 1 C-20.47932687 0.83054298 -17.95850616 0.66436516 -15.4375 0.5 C-14.73302734 0.45230469 -14.02855469 0.40460938 -13.30273438 0.35546875 C-8.85739865 0.0686729 -4.45455341 -0.04682842 0 0 Z " fill="#EDD5D5" transform="translate(27,2)"/>
<path d="M0 0 C2 1.8125 2 1.8125 4 4 C4 4.99 4 5.98 4 7 C4.66 7.66 5.32 8.32 6 9 C5.01 9.495 5.01 9.495 4 10 C3.34444881 12.52733235 3.34444881 12.52733235 3 15 C2.34 15 1.68 15 1 15 C0.67 15.99 0.34 16.98 0 18 C-1.98 18 -3.96 18 -6 18 C-5.625 16.0625 -5.625 16.0625 -5 14 C-4.34 13.67 -3.68 13.34 -3 13 C-3 12.01 -3 11.02 -3 10 C-4.32 10.33 -5.64 10.66 -7 11 C-6.67 9.68 -6.34 8.36 -6 7 C-7.32 7 -8.64 7 -10 7 C-10.33 8.65 -10.66 10.3 -11 12 C-11.33 12 -11.66 12 -12 12 C-12.2519555 8.97653399 -12.20421041 7.3597993 -10.6875 4.6875 C-10.130625 4.130625 -9.57375 3.57375 -9 3 C-8.01 3 -7.02 3 -6 3 C-6 2.34 -6 1.68 -6 1 C-4.7934375 1.0309375 -4.7934375 1.0309375 -3.5625 1.0625 C-1.06645115 1.29633621 -1.06645115 1.29633621 0 0 Z " fill="#3C3535" transform="translate(22,10)"/>
<path d="M0 0 C1.32 0 2.64 0 4 0 C3.67 1.32 3.34 2.64 3 4 C6.27773504 3.24849977 6.27773504 3.24849977 8 0 C8.1875 2.875 8.1875 2.875 8 6 C7.01 6.66 6.02 7.32 5 8 C5.33 8.66 5.66 9.32 6 10 C3.75 10.75 3.75 10.75 1 11 C-1.3125 9.0625 -1.3125 9.0625 -3 7 C-2.01 4.69 -1.02 2.38 0 0 Z " fill="#BBBCBB" transform="translate(12,17)"/>
<path d="M0 0 C0 1.65 0 3.3 0 5 C-2.33163378 5.67258667 -4.6652039 6.33847444 -7 7 C-8.175625 7.3403125 -8.175625 7.3403125 -9.375 7.6875 C-9.91125 7.790625 -10.4475 7.89375 -11 8 C-12 7 -12 7 -12.0625 3.9375 C-12.041875 2.968125 -12.02125 1.99875 -12 1 C-7.9472484 0.01751476 -4.16138263 -0.08159574 0 0 Z " fill="#ACADAC" transform="translate(27,2)"/>
<path d="M0 0 C0.99 0 1.98 0 3 0 C3 0.66 3 1.32 3 2 C3.99 2 4.98 2 6 2 C6 3.65 6 5.3 6 7 C4.68 7.33 3.36 7.66 2 8 C2.33 6.68 2.66 5.36 3 4 C1.68 4 0.36 4 -1 4 C-1.33 5.65 -1.66 7.3 -2 9 C-2.33 9 -2.66 9 -3 9 C-3.2519555 5.97653399 -3.20421041 4.3597993 -1.6875 1.6875 C-1.130625 1.130625 -0.57375 0.57375 0 0 Z " fill="#952E2F" transform="translate(13,13)"/>
<path d="M0 0 C1.32 0 2.64 0 4 0 C3.67 1.32 3.34 2.64 3 4 C6.27773504 3.24849977 6.27773504 3.24849977 8 0 C8 1.98 8 3.96 8 6 C6.02 6 4.04 6 2 6 C1.67 6.66 1.34 7.32 1 8 C0.67 5.36 0.34 2.72 0 0 Z " fill="#E8E6E5" transform="translate(12,17)"/>
<path d="M0 0 C3.3 0 6.6 0 10 0 C9.67 1.32 9.34 2.64 9 4 C8.2575 3.814375 7.515 3.62875 6.75 3.4375 C4.05009037 3.00796892 2.55368923 3.14877026 0 4 C0 2.68 0 1.36 0 0 Z " fill="#4B4B4B" transform="translate(4,3)"/>
<path d="M0 0 C0.33 0 0.66 0 1 0 C1.33 1.98 1.66 3.96 2 6 C3.32 6 4.64 6 6 6 C6 6.66 6 7.32 6 8 C4.68 8 3.36 8 2 8 C2 8.66 2 9.32 2 10 C1.01 10 0.02 10 -1 10 C-1.66 8.02 -2.32 6.04 -3 4 C-2.34 3.67 -1.68 3.34 -1 3 C-0.67 2.01 -0.34 1.02 0 0 Z " fill="#D1CDCD" transform="translate(14,3)"/>
<path d="M0 0 C1.125 6.75 1.125 6.75 0 9 C-0.66 8.34 -1.32 7.68 -2 7 C-2 6.01 -2 5.02 -2 4 C-2.99 3.67 -3.98 3.34 -5 3 C-2.25 0 -2.25 0 0 0 Z " fill="#D8D1D0" transform="translate(9,17)"/>
<path d="M0 0 C0.66 0.66 1.32 1.32 2 2 C1.34 2 0.68 2 0 2 C-0.33 2.99 -0.66 3.98 -1 5 C-2.98 5 -4.96 5 -7 5 C-6.67 3.68 -6.34 2.36 -6 1 C-5.38125 1.20625 -4.7625 1.4125 -4.125 1.625 C-3.073125 1.810625 -3.073125 1.810625 -2 2 C-1.34 1.34 -0.68 0.68 0 0 Z " fill="#5A5A5B" transform="translate(23,23)"/>
<path d="M0 0 C1.98 0 3.96 0 6 0 C6 1.32 6 2.64 6 4 C4.02 4 2.04 4 0 4 C0 2.68 0 1.36 0 0 Z " fill="#474848" transform="translate(15,3)"/>
<path d="M0 0 C2 2 2 2 2.125 4.625 C2.08375 5.40875 2.0425 6.1925 2 7 C1.01 7 0.02 7 -1 7 C-2 4 -2 4 -1.0625 1.8125 C-0.5365625 0.9153125 -0.5365625 0.9153125 0 0 Z " fill="#C6C6C5" transform="translate(11,19)"/>
</svg>
